<?xml version="1.0" encoding="UTF-8" standalone="no"?>
<!-- Created with Inkscape (http://www.inkscape.org/) -->

<svg
   xmlns:dc="http://purl.org/dc/elements/1.1/"
   xmlns:cc="http://creativecommons.org/ns#"
   xmlns:rdf="http://www.w3.org/1999/02/22-rdf-syntax-ns#"
   xmlns:svg="http://www.w3.org/2000/svg"
   xmlns="http://www.w3.org/2000/svg"
   xmlns:sodipodi="http://sodipodi.sourceforge.net/DTD/sodipodi-0.dtd"
   xmlns:inkscape="http://www.inkscape.org/namespaces/inkscape"
   width="277.24384"
   height="58.688011"
   viewBox="0 0 73.354098 15.52787"
   version="1.1"
   id="svg8"
   inkscape:version="0.92.3 (2405546, 2018-03-11)"
   sodipodi:docname="deloSVGwhite.svg"
   inkscape:export-filename="C:\Users\Juan\Documents\deloPNGwhite.png"
   inkscape:export-xdpi="96"
   inkscape:export-ydpi="96">
  <defs
     id="defs2" />
  <sodipodi:namedview
     id="base"
     pagecolor="#ffffff"
     bordercolor="#666666"
     borderopacity="1.0"
     inkscape:pageopacity="0.0"
     inkscape:pageshadow="2"
     inkscape:zoom="0.98994949"
     inkscape:cx="105.78693"
     inkscape:cy="86.4551"
     inkscape:document-units="mm"
     inkscape:current-layer="text12"
     showgrid="false"
     units="px"
     fit-margin-top="0"
     fit-margin-left="0"
     fit-margin-right="0"
     fit-margin-bottom="0"
     inkscape:window-width="1920"
     inkscape:window-height="1011"
     inkscape:window-x="-8"
     inkscape:window-y="-8"
     inkscape:window-maximized="1" />
  <metadata
     id="metadata5">
    <rdf:RDF>
      <cc:Work
         rdf:about="">
        <dc:format>image/svg+xml</dc:format>
        <dc:type
           rdf:resource="http://purl.org/dc/dcmitype/StillImage" />
        <dc:title></dc:title>
      </cc:Work>
    </rdf:RDF>
  </metadata>
  <g
     inkscape:label="Capa 1"
     inkscape:groupmode="layer"
     id="layer1"
     transform="translate(-3.1621042,-275.7908)">
    <g
       aria-label="delonet"
       style="font-style:normal;font-weight:normal;font-size:10.58333302px;line-height:1.25;font-family:sans-serif;letter-spacing:0px;word-spacing:0px;fill:#000000;fill-opacity:1;stroke:none;stroke-width:0.26458332"
       id="text12">
      <path
         d="m 14.126443,280.98651 q 0.01975,0.0593 0.01975,0.1778 v 4.64256 q 0,1.54093 -0.730955,2.80528 -0.7112,1.26436 -1.975556,1.99532 -1.2446,0.7112 -2.7855328,0.7112 -1.540934,0 -2.805289,-0.7112 -1.2446,-0.73096 -1.975556,-1.99532 -0.7112,-1.26435 -0.7112,-2.80528 0,-1.54094 0.691445,-2.78554 0.7112,-1.26435 1.916289,-1.97555 1.224844,-0.73096 2.726266,-0.73096 1.284111,0 2.3509118,0.55316 1.0668,0.5334 1.758244,1.48166 v -5.78837 q 0,-0.33585 0.217311,-0.55316 0.217311,-0.21731 0.553156,-0.21731 0.335844,0 0.5334,0.21731 0.217311,0.21731 0.217311,0.55316 z m -5.4722888,8.94927 q 1.126066,0 2.0348218,-0.5334 0.908756,-0.55316 1.4224,-1.48167 0.5334,-0.94827 0.5334,-2.11384 0,-0.33585 -0.01976,-0.49389 -0.01976,-0.0395 -0.01976,-0.0988 -0.197556,-1.54093 -1.303867,-2.52871 -1.086555,-0.98778 -2.6472438,-0.98778 -1.126067,0 -2.054578,0.5334 -0.908756,0.5334 -1.442156,1.48167 -0.513644,0.92851 -0.513644,2.09409 0,1.16557 0.513644,2.11384 0.5334,0.92851 1.442156,1.48167 0.928511,0.5334 2.054578,0.5334 z"
         style="font-style:normal;font-variant:normal;font-weight:normal;font-stretch:normal;font-size:19.75555611px;font-family:Comfortaa;-inkscape-font-specification:Comfortaa;stroke-width:0.26458332;fill:#ffffff;fill-opacity:1"
         id="path37"
         inkscape:connector-curvature="0" />
      <path
         d="m 21.247526,280.31482 q 1.461911,0 2.587978,0.69145 1.126067,0.67168 1.738489,1.87677 0.632178,1.20509 0.632178,2.74603 0,0.31608 -0.197556,0.51364 -0.197555,0.1778 -0.513644,0.1778 h -7.981245 q 0.158045,1.61996 1.264356,2.62749 1.106311,1.00753 2.765778,1.00753 0.7112,0 1.4224,-0.23706 0.730955,-0.25683 1.165577,-0.63218 0.256823,-0.19756 0.5334,-0.19756 0.217312,0 0.434623,0.15805 0.256822,0.23706 0.256822,0.5334 0,0.25682 -0.217311,0.45437 -0.651934,0.55316 -1.659467,0.92852 -1.007533,0.3556 -1.936044,0.3556 -1.580445,0 -2.825045,-0.69145 -1.2446,-0.7112 -1.9558,-1.9558 -0.691444,-1.26435 -0.691444,-2.8448 0,-1.6002 0.651933,-2.8448 0.671689,-1.26435 1.837267,-1.9558 1.185333,-0.7112 2.686755,-0.7112 z m 0,1.36313 q -1.501422,0 -2.4892,0.92852 -0.987778,0.92851 -1.205089,2.44968 h 7.230534 q -0.158045,-1.52117 -1.106311,-2.44968 -0.948267,-0.92852 -2.429934,-0.92852 z"
         style="font-style:normal;font-variant:normal;font-weight:normal;font-stretch:normal;font-size:19.75555611px;font-family:Comfortaa;-inkscape-font-specification:Comfortaa;stroke-width:0.26458332;fill:#ffffff;fill-opacity:1"
         id="path39"
         inkscape:connector-curvature="0" />
      <path
         d="m 28.365083,276.54151 q 0,-0.33584 0.217311,-0.5334 0.217311,-0.21731 0.5334,-0.21731 0.335844,0 0.5334,0.21731 0.217311,0.19756 0.217311,0.5334 v 11.26067 q 0,0.84949 0.335844,1.38289 0.3556,0.5334 0.889,0.5334 h 0.493889 q 0.296334,0 0.474134,0.21731 0.1778,0.19755 0.1778,0.5334 0,0.33584 -0.256823,0.55315 -0.237066,0.19756 -0.632177,0.19756 h -0.256823 q -1.205088,0 -1.975555,-0.94827 -0.750711,-0.96802 -0.750711,-2.46944 z"
         style="font-style:normal;font-variant:normal;font-weight:normal;font-stretch:normal;font-size:19.75555611px;font-family:Comfortaa;-inkscape-font-specification:Comfortaa;stroke-width:0.26458332;fill:#ffffff;fill-opacity:1"
         id="path41"
         inkscape:connector-curvature="0" />
      <path
         d="m 38.656802,280.31482 q 1.560688,0 2.805288,0.7112 1.244601,0.7112 1.955801,1.97556 0.730955,1.26435 0.730955,2.82504 0,1.56069 -0.7112,2.82505 -0.7112,1.2446 -1.975556,1.9558 -1.2446,0.7112 -2.805288,0.7112 -1.560689,0 -2.825045,-0.7112 -1.2446,-0.7112 -1.9558,-1.9558 -0.7112,-1.26436 -0.7112,-2.82505 0,-1.56069 0.7112,-2.82504 0.7112,-1.26436 1.9558,-1.97556 1.264356,-0.7112 2.825045,-0.7112 z m 0,1.38289 q -1.126067,0 -2.054578,0.5334 -0.908756,0.5334 -1.442156,1.48167 -0.513644,0.92851 -0.513644,2.11384 0,1.16558 0.513644,2.11385 0.5334,0.92851 1.442156,1.46191 0.928511,0.5334 2.054578,0.5334 1.145822,0 2.054577,-0.5334 0.908756,-0.5334 1.4224,-1.46191 0.513645,-0.94827 0.513645,-2.11385 0,-1.18533 -0.513645,-2.11384 -0.513644,-0.94827 -1.4224,-1.48167 -0.908755,-0.5334 -2.054577,-0.5334 z"
         style="font-style:normal;font-variant:normal;font-weight:normal;font-stretch:normal;font-size:19.75555611px;font-family:Comfortaa;-inkscape-font-specification:Comfortaa;stroke-width:0.26458332;fill:#ffffff;fill-opacity:1"
         id="path43"
         inkscape:connector-curvature="0" />
      <path
         d="m 51.714209,280.29507 q 1.402645,0 2.508952,0.59266 1.12607,0.59267 1.75825,1.73849 0.63217,1.12607 0.63217,2.70651 v 5.13645 q 0,0.31609 -0.21731,0.5334 -0.21731,0.21731 -0.5334,0.21731 -0.33584,0 -0.55315,-0.21731 -0.21731,-0.21731 -0.21731,-0.5334 v -5.13645 q 0,-1.75824 -0.98778,-2.667 -0.968022,-0.92851 -2.548466,-0.92851 -0.968023,0 -1.758245,0.37536 -0.770467,0.37535 -1.224844,1.04704 -0.454378,0.65193 -0.454378,1.46191 v 5.84765 q 0,0.33584 -0.217311,0.55315 -0.197556,0.19756 -0.5334,0.19756 -0.335845,0 -0.553156,-0.19756 -0.217311,-0.21731 -0.217311,-0.55315 v -9.28511 q 0,-0.33585 0.217311,-0.55316 0.217311,-0.21731 0.553156,-0.21731 0.335844,0 0.5334,0.21731 0.217311,0.21731 0.217311,0.55316 v 0.67168 q 0.651933,-0.73095 1.580444,-1.14582 0.928512,-0.41486 2.015067,-0.41486 z"
         style="font-style:normal;font-variant:normal;font-weight:normal;font-stretch:normal;font-size:19.75555611px;font-family:Comfortaa;-inkscape-font-specification:Comfortaa;stroke-width:0.26458332;fill:#ffffff;fill-opacity:1"
         id="path45"
         inkscape:connector-curvature="0" />
      <path
         d="m 63.531241,280.31482 q 1.46191,0 2.58798,0.69145 1.12606,0.67168 1.73849,1.87677 0.63217,1.20509 0.63217,2.74603 0,0.31608 -0.19755,0.51364 -0.19756,0.1778 -0.51365,0.1778 h -7.98124 q 0.15804,1.61996 1.26436,2.62749 1.10631,1.00753 2.76577,1.00753 0.7112,0 1.4224,-0.23706 0.73096,-0.25683 1.16558,-0.63218 0.25682,-0.19756 0.5334,-0.19756 0.21731,0 0.43462,0.15805 0.25683,0.23706 0.25683,0.5334 0,0.25682 -0.21732,0.45437 -0.65193,0.55316 -1.65946,0.92852 -1.00754,0.3556 -1.93605,0.3556 -1.58044,0 -2.82504,-0.69145 -1.2446,-0.7112 -1.9558,-1.9558 -0.69145,-1.26435 -0.69145,-2.8448 0,-1.6002 0.65194,-2.8448 0.67169,-1.26435 1.83726,-1.9558 1.18534,-0.7112 2.68676,-0.7112 z m 0,1.36313 q -1.50142,0 -2.4892,0.92852 -0.98778,0.92851 -1.20509,2.44968 h 7.23053 q -0.15804,-1.52117 -1.10631,-2.44968 -0.94826,-0.92852 -2.42993,-0.92852 z"
         style="font-style:normal;font-variant:normal;font-weight:normal;font-stretch:normal;font-size:19.75555611px;font-family:Comfortaa;-inkscape-font-specification:Comfortaa;stroke-width:0.26458332;fill:#ffffff;fill-opacity:1"
         id="path47"
         inkscape:connector-curvature="0" />
      <path
         d="m 75.805001,289.69871 q 0.31609,0 0.51364,0.21731 0.19756,0.21731 0.19756,0.55316 0,0.31609 -0.23707,0.5334 -0.23706,0.21731 -0.59266,0.21731 h -0.41487 q -1.04705,0 -1.87678,-0.49389 -0.82973,-0.51365 -1.30387,-1.36313 -0.45437,-0.86925 -0.45437,-1.9558 v -5.27474 h -1.28411 q -0.31609,0 -0.51365,-0.1778 -0.1778,-0.19755 -0.1778,-0.47413 0,-0.29633 0.1778,-0.47413 0.19756,-0.19756 0.51365,-0.19756 h 1.28411 v -3.06211 q 0,-0.33585 0.19755,-0.55316 0.21731,-0.21731 0.55316,-0.21731 0.33584,0 0.55315,0.21731 0.21731,0.21731 0.21731,0.55316 v 3.06211 h 2.23238 q 0.31609,0 0.49389,0.19756 0.19756,0.1778 0.19756,0.47413 0,0.27658 -0.19756,0.47413 -0.1778,0.1778 -0.49389,0.1778 h -2.23238 v 5.27474 q 0,1.00753 0.59267,1.65946 0.59267,0.63218 1.52118,0.63218 z"
         style="font-style:normal;font-variant:normal;font-weight:normal;font-stretch:normal;font-size:19.75555611px;font-family:Comfortaa;-inkscape-font-specification:Comfortaa;stroke-width:0.26458332;fill:#ffffff;fill-opacity:1"
         id="path49"
         inkscape:connector-curvature="0" />
    </g>
    <flowRoot
       xml:space="preserve"
       id="flowRoot14"
       style="font-style:normal;font-weight:normal;font-size:40px;line-height:1.25;font-family:sans-serif;letter-spacing:0px;word-spacing:0px;fill:#000000;fill-opacity:1;stroke:none"
       transform="scale(0.26458333)"><flowRegion
         id="flowRegion16"><rect
           id="rect18"
           width="399.01025"
           height="249.50768"
           x="131.31982"
           y="364.90527" /></flowRegion><flowPara
         id="flowPara20"></flowPara></flowRoot>  </g>
</svg>
